<?xml version="1.0" standalone="no"?>
<!DOCTYPE svg PUBLIC "-//W3C//DTD SVG 20010904//EN"
 "http://www.w3.org/TR/2001/REC-SVG-20010904/DTD/svg10.dtd">
<svg version="1.0" xmlns="http://www.w3.org/2000/svg"
 width="764.000000pt" height="740.000000pt" viewBox="0 0 764.000000 740.000000"
 preserveAspectRatio="xMidYMid meet">

<g transform="translate(0.000000,740.000000) scale(0.100000,-0.100000)"
fill="#000000" stroke="none">
<path d="M1435 6889 c-358 -67 -640 -347 -711 -707 -12 -63 -14 -429 -14
-2468 0 -2149 2 -2403 16 -2472 73 -355 350 -629 703 -696 74 -14 333 -16
2466 -16 2531 0 2441 -2 2580 45 274 92 497 327 577 610 l23 80 3 2035 2 2035
-782 782 -783 783 -2015 -1 c-1183 -1 -2036 -5 -2065 -10z m4655 -984 l485
-485 -488 0 -487 0 0 485 c0 267 1 485 3 485 1 0 220 -218 487 -485z m-1830
76 c559 -105 1035 -382 1398 -816 289 -345 471 -779 522 -1243 16 -143 8 -481
-14 -612 -111 -652 -473 -1214 -1016 -1575 -551 -367 -1224 -483 -1864 -321
-865 219 -1537 919 -1715 1786 -37 176 -46 273 -45 485 0 237 14 355 68 569
233 920 1003 1609 1946 1740 162 23 568 16 720 -13z"/>
<path d="M3630 5568 c-532 -50 -956 -340 -1095 -748 -32 -94 -55 -216 -55
-291 l0 -59 366 2 366 3 19 73 c23 93 59 158 117 215 66 64 149 111 245 138
71 21 104 24 252 24 196 -1 252 -12 378 -77 136 -71 198 -164 205 -309 6 -118
-13 -171 -86 -250 -46 -50 -75 -70 -166 -114 -122 -59 -174 -74 -566 -169
-492 -119 -704 -218 -911 -425 -201 -202 -276 -405 -266 -716 5 -166 23 -253
80 -384 136 -314 452 -542 871 -626 295 -59 626 -59 921 0 153 31 254 64 384
125 217 104 386 260 499 461 66 118 132 372 132 511 l0 58 -375 0 -375 0 0
-31 c0 -17 -7 -59 -16 -93 -50 -196 -203 -334 -439 -398 -67 -18 -109 -21
-255 -22 -154 -1 -185 2 -255 22 -178 51 -303 140 -361 259 -26 53 -29 68 -29
163 0 122 15 162 92 236 103 101 233 151 685 265 382 96 495 132 645 204 295
141 479 330 551 566 45 147 51 344 16 519 -71 348 -372 653 -779 789 -232 77
-516 106 -795 79z"/>
</g>
</svg>
